<svg width="126" height="28" viewBox="0 0 126 28" fill="none" xmlns="http://www.w3.org/2000/svg">
<path fill-rule="evenodd" clip-rule="evenodd" d="M17.2784 13.7374C17.3502 13.9051 17.3502 14.0949 17.2784 14.2626L16.0737 17.0737L13.2626 18.2784C13.0949 18.3502 12.9051 18.3502 12.7374 18.2784L9.10834 16.7232L8.0539 14.2626C7.98204 14.0949 7.98204 13.9051 8.0539 13.7374L9.45884 10.4588L12.7374 9.0539C12.9051 8.98203 13.0949 8.98203 13.2626 9.0539L15.7232 10.1083L17.2784 13.7374ZM15.7232 10.1083L22.5959 13.0534C22.8411 13.1585 23 13.3995 23 13.6661C23 13.9328 22.8411 14.1738 22.5959 14.2788L16.0737 17.0737L13.2788 23.5959C13.1738 23.8411 12.9328 24 12.6661 24C12.3995 24 12.1585 23.8411 12.0534 23.5959L9.10834 16.7232L3.40405 14.2788C3.15893 14.1738 3 13.9328 3 13.6661C3 13.3995 3.15893 13.1585 3.40405 13.0534L9.45884 10.4588L12.0534 4.40405C12.1585 4.15893 12.3995 4 12.6661 4C12.9328 4 13.1738 4.15893 13.2788 4.40405L15.7232 10.1083ZM13 12L13.449 13.382H14.9021L13.7265 14.2361L14.1756 15.618L13 14.7639L11.8244 15.618L12.2735 14.2361L11.0979 13.382H12.551L13 12Z" fill="#773F28"/>
<path d="M27.595 15.05C27.595 13.8827 27.8557 12.84 28.377 11.922C28.9097 10.9927 29.6293 10.273 30.536 9.763C31.454 9.24167 32.4797 8.981 33.613 8.981C34.939 8.981 36.1007 9.321 37.098 10.001C38.0953 10.681 38.7923 11.6217 39.189 12.823H36.452C36.18 12.2563 35.7947 11.8313 35.296 11.548C34.8087 11.2647 34.242 11.123 33.596 11.123C32.9047 11.123 32.287 11.2873 31.743 11.616C31.2103 11.9333 30.791 12.3867 30.485 12.976C30.1903 13.5653 30.043 14.2567 30.043 15.05C30.043 15.832 30.1903 16.5233 30.485 17.124C30.791 17.7133 31.2103 18.1723 31.743 18.501C32.287 18.8183 32.9047 18.977 33.596 18.977C34.242 18.977 34.8087 18.8353 35.296 18.552C35.7947 18.2573 36.18 17.8267 36.452 17.26H39.189C38.7923 18.4727 38.0953 19.419 37.098 20.099C36.112 20.7677 34.9503 21.102 33.613 21.102C32.4797 21.102 31.454 20.847 30.536 20.337C29.6293 19.8157 28.9097 19.096 28.377 18.178C27.8557 17.26 27.595 16.2173 27.595 15.05ZM47.5798 21.119C46.4692 21.119 45.4492 20.8583 44.5198 20.337C43.5905 19.8157 42.8538 19.096 42.3098 18.178C41.7658 17.2487 41.4938 16.2003 41.4938 15.033C41.4938 13.877 41.7658 12.84 42.3098 11.922C42.8538 10.9927 43.5905 10.2673 44.5198 9.746C45.4492 9.22467 46.4692 8.964 47.5798 8.964C48.7018 8.964 49.7218 9.22467 50.6398 9.746C51.5692 10.2673 52.3002 10.9927 52.8328 11.922C53.3768 12.84 53.6488 13.877 53.6488 15.033C53.6488 16.2003 53.3768 17.2487 52.8328 18.178C52.3002 19.096 51.5692 19.8157 50.6398 20.337C49.7105 20.8583 48.6905 21.119 47.5798 21.119ZM47.5798 18.994C48.2938 18.994 48.9228 18.8353 49.4668 18.518C50.0108 18.1893 50.4358 17.7247 50.7418 17.124C51.0478 16.5233 51.2008 15.8263 51.2008 15.033C51.2008 14.2397 51.0478 13.5483 50.7418 12.959C50.4358 12.3583 50.0108 11.8993 49.4668 11.582C48.9228 11.2647 48.2938 11.106 47.5798 11.106C46.8658 11.106 46.2312 11.2647 45.6758 11.582C45.1318 11.8993 44.7068 12.3583 44.4008 12.959C44.0948 13.5483 43.9418 14.2397 43.9418 15.033C43.9418 15.8263 44.0948 16.5233 44.4008 17.124C44.7068 17.7247 45.1318 18.1893 45.6758 18.518C46.2312 18.8353 46.8658 18.994 47.5798 18.994ZM69.2065 9.134V21H66.8265V13.282L63.6475 21H61.8455L58.6495 13.282V21H56.2695V9.134H58.9725L62.7465 17.957L66.5205 9.134H69.2065ZM81.0625 12.806C81.0625 13.4407 80.9095 14.0357 80.6035 14.591C80.3089 15.1463 79.8385 15.594 79.1925 15.934C78.5579 16.274 77.7532 16.444 76.7785 16.444H74.7895V21H72.4095V9.134H76.7785C77.6965 9.134 78.4785 9.29267 79.1245 9.61C79.7705 9.92733 80.2522 10.3637 80.5695 10.919C80.8982 11.4743 81.0625 12.1033 81.0625 12.806ZM76.6765 14.523C77.3339 14.523 77.8212 14.3757 78.1385 14.081C78.4559 13.775 78.6145 13.35 78.6145 12.806C78.6145 11.65 77.9685 11.072 76.6765 11.072H74.7895V14.523H76.6765ZM90.8783 18.739H86.1523L85.3703 21H82.8713L87.1383 9.117H89.9093L94.1763 21H91.6603L90.8783 18.739ZM90.2323 16.835L88.5153 11.871L86.7983 16.835H90.2323ZM106.77 21H104.39L99.0012 12.857V21H96.6212V9.117H99.0012L104.39 17.277V9.117H106.77V21ZM119.407 9.134L115.395 16.869V21H113.015V16.869L108.986 9.134H111.672L114.222 14.557L116.755 9.134H119.407Z" fill="#773F28"/>
</svg>
